<svg xmlns="http://www.w3.org/2000/svg" width="551" height="333" viewBox="0 0 551 333">
  <rect id="Rectangle_1" data-name="Rectangle 1" width="75" height="75" rx="8" transform="translate(134 88)" fill="#555"/>
  <rect id="Rectangle_2" data-name="Rectangle 2" width="75" height="75" rx="8" transform="translate(219 88)" fill="#555"/>
  <rect id="Rectangle_3" data-name="Rectangle 3" width="124" height="75" rx="8" transform="translate(0 88)" fill="#555"/>
  <rect id="Rectangle_4" data-name="Rectangle 4" width="75" height="75" rx="8" transform="translate(304 88)" fill="#555"/>
  <rect id="Rectangle_5" data-name="Rectangle 5" width="75" height="75" rx="8" transform="translate(173 173)" fill="#555"/>
  <g id="Rectangle_6" data-name="Rectangle 6" transform="translate(258 173)" fill="#555" stroke="#555" stroke-width="1">
    <rect width="75" height="75" rx="8" stroke="none"/>
    <rect x="0.5" y="0.5" width="74" height="74" rx="7.5" fill="none"/>
  </g>
  <rect id="Rectangle_7" data-name="Rectangle 7" width="163" height="75" rx="8" transform="translate(0 173)" fill="#555"/>
  <rect id="Rectangle_8" data-name="Rectangle 8" width="75" height="75" rx="8" transform="translate(343 173)" fill="#555"/>
  <rect id="Rectangle_9" data-name="Rectangle 9" width="75" height="75" rx="8" transform="translate(82 3)" fill="#555"/>
  <rect id="Rectangle_10" data-name="Rectangle 10" width="75" height="75" rx="8" transform="translate(167 3)" fill="#555"/>
  <rect id="Rectangle_12" data-name="Rectangle 12" width="75" height="75" rx="8" transform="translate(252 3)" fill="#555"/>
  <rect id="Rectangle_13" data-name="Rectangle 13" width="67" height="75" rx="8" transform="translate(0 3)" fill="#555"/>
  <rect id="Rectangle_14" data-name="Rectangle 14" width="75" height="75" rx="8" transform="translate(337 3)" fill="#555"/>
  <rect id="Rectangle_15" data-name="Rectangle 15" width="75" height="75" rx="8" transform="translate(219 258)" fill="#555"/>
  <rect id="Rectangle_16" data-name="Rectangle 16" width="75" height="75" rx="8" transform="translate(304 258)" fill="#555"/>
  <rect id="Rectangle_17" data-name="Rectangle 17" width="209" height="75" rx="8" transform="translate(0 258)" fill="#555"/>
  <rect id="Rectangle_18" data-name="Rectangle 18" width="75" height="75" rx="8" transform="translate(389 258)" fill="#555"/>
  <text id="W" transform="translate(232 119)" fill="#fff" font-size="27" font-family="SegoeUI, Segoe UI"><tspan x="0" y="0">W</tspan></text>
  <text id="E" transform="translate(315 119)" fill="#fff" font-size="27" font-family="SegoeUI, Segoe UI"><tspan x="0" y="0">E</tspan></text>
  <text id="Q" transform="translate(147 119)" fill="#fff" font-size="27" font-family="SegoeUI, Segoe UI"><tspan x="0" y="0">Q</tspan></text>
  <text id="S" transform="translate(269 202)" fill="#fff" font-size="27" font-family="SegoeUI, Segoe UI"><tspan x="0" y="0">S</tspan></text>
  <text id="D" transform="translate(352 202)" fill="#fff" font-size="27" font-family="SegoeUI, Segoe UI"><tspan x="0" y="0">D</tspan></text>
  <text id="A" transform="translate(184 202)" fill="#fff" font-size="27" font-family="SegoeUI, Segoe UI"><tspan x="0" y="0">A</tspan></text>
  <text id="_2" data-name="2" transform="translate(193 57)" fill="#fff" font-size="27" font-family="SegoeUI, Segoe UI"><tspan x="0" y="0">2</tspan></text>
  <text id="_3" data-name="3" transform="translate(276 57)" fill="#fff" font-size="27" font-family="SegoeUI, Segoe UI"><tspan x="0" y="0">3</tspan></text>
  <text id="_1" data-name="1" transform="translate(108 57)" fill="#fff" font-size="27" font-family="SegoeUI, Segoe UI"><tspan x="0" y="0">1</tspan></text>
  <text id="x" transform="translate(314 289)" fill="#fff" font-size="27" font-family="SegoeUI, Segoe UI"><tspan x="0" y="0">x</tspan></text>
  <text id="c" transform="translate(397 289)" fill="#fff" font-size="27" font-family="SegoeUI, Segoe UI"><tspan x="0" y="0">c</tspan></text>
  <text id="z" transform="translate(229 289)" fill="#fff" font-size="27" font-family="SegoeUI, Segoe UI"><tspan x="0" y="0">z</tspan></text>
  <text id="Shift" transform="translate(22 291)" fill="#fff" font-size="20" font-family="SegoeUI, Segoe UI"><tspan x="0" y="0">Shift</tspan></text>
  <text id="Caps_lock" data-name="Caps lock" transform="translate(22 218)" fill="#fff" font-size="20" font-family="SegoeUI, Segoe UI"><tspan x="0" y="0">Caps lock</tspan></text>
  <text id="Tab" transform="translate(22 133)" fill="#fff" font-size="20" font-family="SegoeUI, Segoe UI"><tspan x="0" y="0">Tab</tspan></text>
  <text id="_" data-name="~" transform="translate(22 48)" fill="#fff" font-size="20" font-family="SegoeUI, Segoe UI"><tspan x="0" y="0">~</tspan></text>
  <rect id="Rectangle_19" data-name="Rectangle 19" width="75" height="75" rx="8" transform="translate(391 88)" fill="#555"/>
  <rect id="Rectangle_20" data-name="Rectangle 20" width="75" height="75" rx="8" transform="translate(430 173)" fill="#555"/>
  <rect id="Rectangle_21" data-name="Rectangle 21" width="75" height="75" rx="8" transform="translate(424 3)" fill="#555"/>
  <rect id="Rectangle_22" data-name="Rectangle 22" width="75" height="75" rx="8" transform="translate(476 258)" fill="#555"/>
  <rect id="Rectangle_23" data-name="Rectangle 23" width="75" height="75" rx="8" transform="translate(476 88)" fill="#555"/>
  <g id="Group_1" data-name="Group 1" transform="translate(242 -155)">
    <path id="Path_1" data-name="Path 1" d="M136.281,357.953V337.471" transform="translate(-123 -51.58)" fill="none" stroke="#ff4747" stroke-width="3"/>
    <path id="Path_2" data-name="Path 2" d="M127.616,356.737l8.826-7.723,9.194,7.723" transform="translate(-123.345 -64)" fill="none" stroke="#ff4747" stroke-width="2"/>
  </g>
  <g id="Group_2" data-name="Group 2" transform="translate(-85.704 237.975) rotate(-90)">
    <path id="Path_1-2" data-name="Path 1" d="M136.281,357.953V337.471" transform="translate(-123 -51.58)" fill="none" stroke="#ff4747" stroke-width="3"/>
    <path id="Path_2-2" data-name="Path 2" d="M127.616,356.737l8.826-7.723,9.194,7.723" transform="translate(-123.345 -64)" fill="none" stroke="#ff4747" stroke-width="2"/>
  </g>
  <g id="Group_3" data-name="Group 3" transform="translate(308.781 520.388) rotate(180)">
    <path id="Path_1-3" data-name="Path 1" d="M136.281,357.953V337.471" transform="translate(-123 -51.58)" fill="none" stroke="#ff4747" stroke-width="3"/>
    <path id="Path_2-3" data-name="Path 2" d="M127.616,356.737l8.826-7.723,9.194,7.723" transform="translate(-123.345 -64)" fill="none" stroke="#ff4747" stroke-width="2"/>
  </g>
  <g id="Group_4" data-name="Group 4" transform="translate(679.684 211.413) rotate(90)">
    <path id="Path_1-4" data-name="Path 1" d="M136.281,357.953V337.471" transform="translate(-123 -51.58)" fill="none" stroke="#ff4747" stroke-width="3"/>
    <path id="Path_2-4" data-name="Path 2" d="M127.616,356.737l8.826-7.723,9.194,7.723" transform="translate(-123.345 -64)" fill="none" stroke="#ff4747" stroke-width="2"/>
  </g>
  <g id="Group_5" data-name="Group 5" transform="translate(-45 -9)">
    <path id="Path_3" data-name="Path 3" d="M151.08,332.6s-8.587,1.875-12.531-1.751-3.944-8.2,0-11.824,12.531-.928,12.531-.928" transform="translate(242.409 -176.118)" fill="none" stroke="#ff4747" stroke-width="2"/>
    <path id="Path_4" data-name="Path 4" d="M148.342,311.118l2.756,7.326-5.585,4.207" transform="translate(242.409 -176.118)" fill="none" stroke="#ff4747" stroke-width="2"/>
  </g>
  <g id="Group_6" data-name="Group 6" transform="translate(161 126)">
    <path id="Path_3-2" data-name="Path 3" d="M135.591,332.6s8.587,1.875,12.531-1.751,3.944-8.2,0-11.824-12.531-.928-12.531-.928" transform="translate(-135.573 -311.118)" fill="none" stroke="#ff4747" stroke-width="2"/>
    <path id="Path_4-2" data-name="Path 4" d="M148.269,311.118l-2.756,7.326,5.585,4.207" transform="translate(-145.513 -311.118)" fill="none" stroke="#ff4747" stroke-width="2"/>
  </g>
  <text id="_4" data-name="4" transform="translate(366 57)" fill="#fff" font-size="27" font-family="SegoeUI, Segoe UI"><tspan x="0" y="0">4</tspan></text>
  <text id="_5" data-name="5" transform="translate(454 57)" fill="#fff" font-size="27" font-family="SegoeUI, Segoe UI"><tspan x="0" y="0">5</tspan></text>
  <text id="_2-2" data-name="@" transform="translate(178 29)" fill="#fff" font-size="27" font-family="SegoeUI, Segoe UI"><tspan x="0" y="0">@</tspan></text>
  <text id="_3-2" data-name="#" transform="translate(261 29)" fill="#fff" font-size="27" font-family="SegoeUI, Segoe UI"><tspan x="0" y="0">#</tspan></text>
  <text id="_4-2" data-name="!" transform="translate(93 29)" fill="#fff" font-size="27" font-family="SegoeUI, Segoe UI"><tspan x="0" y="0">!</tspan></text>
  <text id="_5-2" data-name="$" transform="translate(351 29)" fill="#fff" font-size="27" font-family="SegoeUI, Segoe UI"><tspan x="0" y="0">$</tspan></text>
  <text id="_6" data-name="%" transform="translate(439 29)" fill="#fff" font-size="27" font-family="SegoeUI, Segoe UI"><tspan x="0" y="0">%</tspan></text>
  <text id="R" transform="translate(405 119)" fill="#fff" font-size="27" font-family="SegoeUI, Segoe UI"><tspan x="0" y="0">R</tspan></text>
  <text id="T" transform="translate(491 119)" fill="#fff" font-size="27" font-family="SegoeUI, Segoe UI"><tspan x="0" y="0">T</tspan></text>
  <text id="F" transform="translate(448 202)" fill="#fff" font-size="27" font-family="SegoeUI, Segoe UI"><tspan x="0" y="0">F</tspan></text>
  <text id="_7" data-name="&quot;" transform="translate(215 29)" fill="#fff" font-size="27" font-family="SegoeUI, Segoe UI"><tspan x="0" y="0">&quot;</tspan></text>
  <text id=":" transform="translate(298 29)" fill="#fff" font-size="27" font-family="SegoeUI, Segoe UI"><tspan x="0" y="0">:</tspan></text>
  <text id="_8" data-name="?" transform="translate(388 29)" fill="#fff" font-size="27" font-family="SegoeUI, Segoe UI"><tspan x="0" y="0">?</tspan></text>
  <text id="_9" data-name="&lt;" transform="translate(476 29)" fill="#fff" font-size="27" font-family="SegoeUI, Segoe UI"><tspan x="0" y="0">&lt;</tspan></text>
</svg>
